{
  "asset": {
    "version": "2.0",
    "generator": "THREE.GLTFExporter"
  },
  "scenes": [
    {
      "name": "Scene",
      "nodes": [
        11,
        12
      ]
    }
  ],
  "scene": 0,
  "nodes": [
    {
      "name": "Untitled004",
      "mesh": 0
    },
    {
      "name": "Untitled004_1",
      "mesh": 1
    },
    {
      "matrix": [
        -0.004985060043285306,
        -2.502662909814312e-10,
        -0.008668863629457579,
        0,
        0.008668863629457365,
        1.2672190480150893e-9,
        -0.004985059218075309,
        0,
        1.938657262467639e-9,
        -0.010000000601692295,
        -1.6513456899170045e-9,
        0,
        -0.10538223385810852,
        0.19731269776821136,
        0.3293037414550781,
        1
      ],
      "name": "Tree",
      "extras": {
        "name": "Tree"
      },
      "children": [
        0,
        1
      ]
    },
    {
      "matrix": [
        -0.001715359731136024,
        0,
        -0.009851778105057357,
        0,
        0,
        0.009999999776482582,
        0,
        0,
        0.009851778105057357,
        0,
        -0.001715359731136024,
        0,
        -0.01754789426922798,
        0.16460935771465302,
        -0.055641382932662964,
        1
      ],
      "name": "Green_platform",
      "extras": {
        "name": "Green_platform"
      },
      "mesh": 2
    },
    {
      "matrix": [
        -0.006788573542758937,
        4.8374494439165936e-11,
        0.007342704436309678,
        0,
        0.007342704436309642,
        -2.2413240895204744e-9,
        0.006788572242624708,
        0,
        7.239272130925787e-10,
        0.01000000107661674,
        -6.967206744569851e-10,
        0,
        0.03225453197956085,
        -0.2859664261341095,
        -0.04436253383755684,
        1
      ],
      "name": "Island",
      "extras": {
        "name": "Island"
      },
      "mesh": 3
    },
    {
      "name": "Untitled001",
      "mesh": 4
    },
    {
      "name": "Untitled001_1",
      "mesh": 5
    },
    {
      "matrix": [
        0.008845638985814508,
        -4.070743295831026e-10,
        -0.004664189830590321,
        0,
        0.004664189830590339,
        6.318350501460568e-10,
        0.008845639121600505,
        0,
        -2.0502177275046488e-12,
        -0.009999999912268576,
        7.330910781099563e-10,
        0,
        0.07664263248443604,
        0.5582965016365051,
        -0.23244524002075195,
        1
      ],
      "name": "Mill",
      "extras": {
        "name": "Mill"
      },
      "children": [
        5,
        6
      ]
    },
    {
      "name": "Untitled",
      "mesh": 6
    },
    {
      "name": "Untitled_1",
      "mesh": 7
    },
    {
      "matrix": [
        -0.004663812309413768,
        -0.0001272950194830569,
        -0.008844922011259995,
        0,
        0.008845639539833658,
        -7.781807912867211e-10,
        -0.004664190044740081,
        0,
        0.000059372666897024366,
        -0.009999190148062876,
        0.00011260006679455834,
        0,
        -0.0674794614315033,
        0.8359634876251221,
        -0.15669505298137665,
        1
      ],
      "name": "propeller",
      "extras": {
        "name": "propeller"
      },
      "children": [
        8,
        9
      ]
    },
    {
      "name": "low_poly_mill.glb",
      "children": [
        2,
        3,
        4,
        7,
        10
      ]
    },
    {
      "matrix": [
        1,
        0,
        0,
        0,
        0,
        1,
        0,
        0,
        0,
        0,
        1,
        0,
        -1.1784533828319324,
        0.7599293744637321,
        0,
        1
      ],
      "name": "DirectionalLight",
      "extensions": {
        "KHR_lights_punctual": {
          "light": 0
        }
      }
    }
  ],
  "bufferViews": [
    {
      "buffer": 0,
      "byteOffset": 0,
      "byteLength": 852,
      "target": 34962,
      "byteStride": 12
    },
    {
      "buffer": 0,
      "byteOffset": 852,
      "byteLength": 852,
      "target": 34962,
      "byteStride": 12
    },
    {
      "buffer": 0,
      "byteOffset": 1704,
      "byteLength": 568,
      "target": 34962,
      "byteStride": 8
    },
    {
      "buffer": 0,
      "byteOffset": 2272,
      "byteLength": 216,
      "target": 34963
    },
    {
      "buffer": 0,
      "byteOffset": 2488,
      "byteLength": 28224,
      "target": 34962,
      "byteStride": 12
    },
    {
      "buffer": 0,
      "byteOffset": 30712,
      "byteLength": 28224,
      "target": 34962,
      "byteStride": 12
    },
    {
      "buffer": 0,
      "byteOffset": 58936,
      "byteLength": 18816,
      "target": 34962,
      "byteStride": 8
    },
    {
      "buffer": 0,
      "byteOffset": 77752,
      "byteLength": 7056,
      "target": 34963
    },
    {
      "buffer": 0,
      "byteOffset": 84808,
      "byteLength": 1008,
      "target": 34962,
      "byteStride": 12
    },
    {
      "buffer": 0,
      "byteOffset": 85816,
      "byteLength": 1008,
      "target": 34962,
      "byteStride": 12
    },
    {
      "buffer": 0,
      "byteOffset": 86824,
      "byteLength": 672,
      "target": 34962,
      "byteStride": 8
    },
    {
      "buffer": 0,
      "byteOffset": 87496,
      "byteLength": 360,
      "target": 34963
    },
    {
      "buffer": 0,
      "byteOffset": 87856,
      "byteLength": 5628,
      "target": 34962,
      "byteStride": 12
    },
    {
      "buffer": 0,
      "byteOffset": 93484,
      "byteLength": 5628,
      "target": 34962,
      "byteStride": 12
    },
    {
      "buffer": 0,
      "byteOffset": 99112,
      "byteLength": 3752,
      "target": 34962,
      "byteStride": 8
    },
    {
      "buffer": 0,
      "byteOffset": 102864,
      "byteLength": 1292,
      "target": 34963
    },
    {
      "buffer": 0,
      "byteOffset": 104156,
      "byteLength": 2544,
      "target": 34962,
      "byteStride": 12
    },
    {
      "buffer": 0,
      "byteOffset": 106700,
      "byteLength": 2544,
      "target": 34962,
      "byteStride": 12
    },
    {
      "buffer": 0,
      "byteOffset": 109244,
      "byteLength": 1696,
      "target": 34962,
      "byteStride": 8
    },
    {
      "buffer": 0,
      "byteOffset": 110940,
      "byteLength": 648,
      "target": 34963
    },
    {
      "buffer": 0,
      "byteOffset": 111588,
      "byteLength": 504,
      "target": 34962,
      "byteStride": 12
    },
    {
      "buffer": 0,
      "byteOffset": 112092,
      "byteLength": 504,
      "target": 34962,
      "byteStride": 12
    },
    {
      "buffer": 0,
      "byteOffset": 112596,
      "byteLength": 336,
      "target": 34962,
      "byteStride": 8
    },
    {
      "buffer": 0,
      "byteOffset": 112932,
      "byteLength": 144,
      "target": 34963
    },
    {
      "buffer": 0,
      "byteOffset": 113076,
      "byteLength": 480,
      "target": 34962,
      "byteStride": 12
    },
    {
      "buffer": 0,
      "byteOffset": 113556,
      "byteLength": 480,
      "target": 34962,
      "byteStride": 12
    },
    {
      "buffer": 0,
      "byteOffset": 114036,
      "byteLength": 320,
      "target": 34962,
      "byteStride": 8
    },
    {
      "buffer": 0,
      "byteOffset": 114356,
      "byteLength": 180,
      "target": 34963
    },
    {
      "buffer": 0,
      "byteOffset": 114536,
      "byteLength": 2460,
      "target": 34962,
      "byteStride": 12
    },
    {
      "buffer": 0,
      "byteOffset": 116996,
      "byteLength": 2460,
      "target": 34962,
      "byteStride": 12
    },
    {
      "buffer": 0,
      "byteOffset": 119456,
      "byteLength": 1640,
      "target": 34962,
      "byteStride": 8
    },
    {
      "buffer": 0,
      "byteOffset": 121096,
      "byteLength": 936,
      "target": 34963
    }
  ],
  "buffers": [
    {
      "byteLength": 122032,
      "uri": "data:application/octet-stream;base64,"
    }
  ],
  "accessors": [
    {
      "bufferView": 0,
      "componentType": 5126,
      "count": 71,
      "max": [
        6.641221046447754,
        10.153261184692383,
        0.18842050433158875
      ],
      "min": [
        -4.924267292022705,
        -9.97599983215332,
        -23.31625747680664
      ],
      "type": "VEC3"
    },
    {
      "bufferView": 1,
      "componentType": 5126,
      "count": 71,
      "max": [
        0.9619272351264954,
        0.9098928570747375,
        1
      ],
      "min": [
        -0.9715335369110107,
        -0.9098928570747375,
        -1
      ],
      "type": "VEC3"
    },
    {
      "bufferView": 2,
      "componentType": 5126,
      "count": 71,
      "max": [
        1,
        1
      ],
      "min": [
        0,
        0
      ],
      "type": "VEC2"
    },
    {
      "bufferView": 3,
      "componentType": 5123,
      "count": 108,
      "max": [
        70
      ],
      "min": [
        0
      ],
      "type": "SCALAR"
    },
    {
      "bufferView": 4,
      "componentType": 5126,
      "count": 2352,
      "max": [
        19.47820472717285,
        26.712648391723633,
        -9.212320327758789
      ],
      "min": [
        -17.0523681640625,
        -23.989776611328125,
        -42.08319854736328
      ],
      "type": "VEC3"
    },
    {
      "bufferView": 5,
      "componentType": 5126,
      "count": 2352,
      "max": [
        0.9996874928474426,
        0.9999272227287292,
        0.995922863483429
      ],
      "min": [
        -0.9963629245758057,
        -0.9977317452430725,
        -0.9995526671409607
      ],
      "type": "VEC3"
    },
    {
      "bufferView": 6,
      "componentType": 5126,
      "count": 2352,
      "max": [
        1,
        1
      ],
      "min": [
        0,
        0
      ],
      "type": "VEC2"
    },
    {
      "bufferView": 7,
      "componentType": 5123,
      "count": 3528,
      "max": [
        2351
      ],
      "min": [
        0
      ],
      "type": "SCALAR"
    },
    {
      "bufferView": 8,
      "componentType": 5126,
      "count": 84,
      "max": [
        51.27503204345703,
        3.975393533706665,
        49.31048583984375
      ],
      "min": [
        -51.27503204345703,
        -3.975393533706665,
        -49.31048583984375
      ],
      "type": "VEC3"
    },
    {
      "bufferView": 9,
      "componentType": 5126,
      "count": 84,
      "max": [
        0.9850970506668091,
        1,
        0.9996218085289001
      ],
      "min": [
        -0.9989553689956665,
        -1,
        -0.9956849217414856
      ],
      "type": "VEC3"
    },
    {
      "bufferView": 10,
      "componentType": 5126,
      "count": 84,
      "max": [
        1,
        1
      ],
      "min": [
        0,
        0
      ],
      "type": "VEC2"
    },
    {
      "bufferView": 11,
      "componentType": 5123,
      "count": 180,
      "max": [
        83
      ],
      "min": [
        0
      ],
      "type": "SCALAR"
    },
    {
      "bufferView": 12,
      "componentType": 5126,
      "count": 469,
      "max": [
        51.647335052490234,
        55.21270751953125,
        53.349082946777344
      ],
      "min": [
        -51.647335052490234,
        -55.21270751953125,
        -53.349082946777344
      ],
      "type": "VEC3"
    },
    {
      "bufferView": 13,
      "componentType": 5126,
      "count": 469,
      "max": [
        0.9776188731193542,
        0.9809886813163757,
        0.9962416291236877
      ],
      "min": [
        -0.9275754690170288,
        -0.9631945490837097,
        -0.9860472679138184
      ],
      "type": "VEC3"
    },
    {
      "bufferView": 14,
      "componentType": 5126,
      "count": 469,
      "max": [
        1,
        1
      ],
      "min": [
        0,
        0
      ],
      "type": "VEC2"
    },
    {
      "bufferView": 15,
      "componentType": 5123,
      "count": 645,
      "max": [
        468
      ],
      "min": [
        0
      ],
      "type": "SCALAR"
    },
    {
      "bufferView": 16,
      "componentType": 5126,
      "count": 212,
      "max": [
        19.148300170898438,
        19.148300170898438,
        39.13275146484375
      ],
      "min": [
        -19.148300170898438,
        -19.148300170898438,
        -39.13275146484375
      ],
      "type": "VEC3"
    },
    {
      "bufferView": 17,
      "componentType": 5126,
      "count": 212,
      "max": [
        1,
        1,
        1
      ],
      "min": [
        -1,
        -1,
        -1
      ],
      "type": "VEC3"
    },
    {
      "bufferView": 18,
      "componentType": 5126,
      "count": 212,
      "max": [
        1,
        1
      ],
      "min": [
        0,
        0
      ],
      "type": "VEC2"
    },
    {
      "bufferView": 19,
      "componentType": 5123,
      "count": 324,
      "max": [
        211
      ],
      "min": [
        0
      ],
      "type": "SCALAR"
    },
    {
      "bufferView": 20,
      "componentType": 5126,
      "count": 42,
      "max": [
        19.148300170898438,
        19.148300170898438,
        39.13275146484375
      ],
      "min": [
        -19.148300170898438,
        -19.148300170898438,
        -21.1347599029541
      ],
      "type": "VEC3"
    },
    {
      "bufferView": 21,
      "componentType": 5126,
      "count": 42,
      "max": [
        1,
        1,
        0
      ],
      "min": [
        -1,
        -1,
        -0.10730285197496414
      ],
      "type": "VEC3"
    },
    {
      "bufferView": 22,
      "componentType": 5126,
      "count": 42,
      "max": [
        1,
        1
      ],
      "min": [
        0,
        0
      ],
      "type": "VEC2"
    },
    {
      "bufferView": 23,
      "componentType": 5123,
      "count": 72,
      "max": [
        41
      ],
      "min": [
        0
      ],
      "type": "SCALAR"
    },
    {
      "bufferView": 24,
      "componentType": 5126,
      "count": 40,
      "max": [
        20.347558975219727,
        -1.3403810262680054,
        21.029830932617188
      ],
      "min": [
        -20.347558975219727,
        -1.3403810262680054,
        -17.721527099609375
      ],
      "type": "VEC3"
    },
    {
      "bufferView": 25,
      "componentType": 5126,
      "count": 40,
      "max": [
        0,
        -1,
        0
      ],
      "min": [
        0,
        -1,
        0
      ],
      "type": "VEC3"
    },
    {
      "bufferView": 26,
      "componentType": 5126,
      "count": 40,
      "max": [
        0,
        0
      ],
      "min": [
        0,
        0
      ],
      "type": "VEC2"
    },
    {
      "bufferView": 27,
      "componentType": 5123,
      "count": 90,
      "max": [
        39
      ],
      "min": [
        0
      ],
      "type": "SCALAR"
    },
    {
      "bufferView": 28,
      "componentType": 5126,
      "count": 205,
      "max": [
        30.549083709716797,
        1.3403810262680054,
        29.053903579711914
      ],
      "min": [
        -30.549083709716797,
        -1.3403810262680054,
        -29.053903579711914
      ],
      "type": "VEC3"
    },
    {
      "bufferView": 29,
      "componentType": 5126,
      "count": 205,
      "max": [
        0.984727144241333,
        1,
        1
      ],
      "min": [
        -0.984727144241333,
        -1,
        -1
      ],
      "type": "VEC3"
    },
    {
      "bufferView": 30,
      "componentType": 5126,
      "count": 205,
      "max": [
        1,
        1
      ],
      "min": [
        0,
        0
      ],
      "type": "VEC2"
    },
    {
      "bufferView": 31,
      "componentType": 5123,
      "count": 468,
      "max": [
        204
      ],
      "min": [
        0
      ],
      "type": "SCALAR"
    }
  ],
  "materials": [
    {
      "pbrMetallicRoughness": {
        "baseColorFactor": [
          0.3265306055545807,
          0.1694968044757843,
          0.012463000603020191,
          1
        ],
        "metallicFactor": 0,
        "roughnessFactor": 0.5
      },
      "doubleSided": true,
      "name": "wood"
    },
    {
      "pbrMetallicRoughness": {
        "baseColorFactor": [
          0,
          0.704081654548645,
          0.2581632733345032,
          1
        ],
        "metallicFactor": 0,
        "roughnessFactor": 0.5
      },
      "doubleSided": true,
      "name": "foliage"
    },
    {
      "pbrMetallicRoughness": {
        "baseColorFactor": [
          0.005997818894684315,
          0.7857142686843872,
          0.005997818894684315,
          1
        ],
        "metallicFactor": 0,
        "roughnessFactor": 0.5
      },
      "doubleSided": true,
      "name": "platform"
    },
    {
      "pbrMetallicRoughness": {
        "baseColorFactor": [
          0.6428571343421936,
          0.4390403628349304,
          0.20610687136650085,
          1
        ],
        "metallicFactor": 0,
        "roughnessFactor": 0.5
      },
      "doubleSided": true,
      "name": "ground"
    },
    {
      "pbrMetallicRoughness": {
        "baseColorFactor": [
          0.5714285969734192,
          0.35390767455101013,
          0.18756815791130066,
          1
        ],
        "metallicFactor": 0,
        "roughnessFactor": 0.5
      },
      "doubleSided": true,
      "name": "facade"
    },
    {
      "pbrMetallicRoughness": {
        "baseColorFactor": [
          0.8103365302085876,
          0.7571272850036621,
          0.8265306353569031,
          1
        ],
        "metallicFactor": 0,
        "roughnessFactor": 0.5
      },
      "doubleSided": true,
      "name": "facade1"
    }
  ],
  "meshes": [
    {
      "primitives": [
        {
          "mode": 4,
          "attributes": {
            "POSITION": 0,
            "NORMAL": 1,
            "TEXCOORD_0": 2
          },
          "indices": 3,
          "material": 0
        }
      ]
    },
    {
      "primitives": [
        {
          "mode": 4,
          "attributes": {
            "POSITION": 4,
            "NORMAL": 5,
            "TEXCOORD_0": 6
          },
          "indices": 7,
          "material": 1
        }
      ]
    },
    {
      "primitives": [
        {
          "mode": 4,
          "attributes": {
            "POSITION": 8,
            "NORMAL": 9,
            "TEXCOORD_0": 10
          },
          "indices": 11,
          "material": 2
        }
      ]
    },
    {
      "primitives": [
        {
          "mode": 4,
          "attributes": {
            "POSITION": 12,
            "NORMAL": 13,
            "TEXCOORD_0": 14
          },
          "indices": 15,
          "material": 3
        }
      ]
    },
    {
      "primitives": [
        {
          "mode": 4,
          "attributes": {
            "POSITION": 16,
            "NORMAL": 17,
            "TEXCOORD_0": 18
          },
          "indices": 19,
          "material": 4
        }
      ]
    },
    {
      "primitives": [
        {
          "mode": 4,
          "attributes": {
            "POSITION": 20,
            "NORMAL": 21,
            "TEXCOORD_0": 22
          },
          "indices": 23,
          "material": 5
        }
      ]
    },
    {
      "primitives": [
        {
          "mode": 4,
          "attributes": {
            "POSITION": 24,
            "NORMAL": 25,
            "TEXCOORD_0": 26
          },
          "indices": 27,
          "material": 3
        }
      ]
    },
    {
      "primitives": [
        {
          "mode": 4,
          "attributes": {
            "POSITION": 28,
            "NORMAL": 29,
            "TEXCOORD_0": 30
          },
          "indices": 31,
          "material": 5
        }
      ]
    }
  ],
  "extensions": {
    "KHR_lights_punctual": {
      "lights": [
        {
          "name": "DirectionalLight",
          "color": [
            1,
            1,
            1
          ],
          "intensity": 1,
          "type": "directional"
        }
      ]
    }
  },
  "extensionsUsed": [
    "KHR_lights_punctual"
  ]
}